<?xml version="1.0" standalone="no"?>
<!DOCTYPE svg PUBLIC "-//W3C//DTD SVG 20010904//EN"
 "http://www.w3.org/TR/2001/REC-SVG-20010904/DTD/svg10.dtd">
<svg version="1.0" xmlns="http://www.w3.org/2000/svg"
 width="1536.000000pt" height="1024.000000pt" viewBox="0 0 1536.000000 1024.000000"
 preserveAspectRatio="xMidYMid meet">
<metadata>
Created by potrace 1.16, written by Peter Selinger 2001-2019
</metadata>
<g transform="translate(0.000000,1024.000000) scale(0.100000,-0.100000)"
fill="#000000" stroke="none">
<path d="M0 5120 l0 -5120 7680 0 7680 0 0 5120 0 5120 -7680 0 -7680 0 0
-5120z m11477 2397 c5 -5 -285 -297 -761 -765 -297 -291 -362 -351 -380 -347
-15 5 -17 4 -7 -3 11 -8 6 -17 -21 -47 -24 -26 -35 -33 -35 -22 0 10 6 17 12
17 7 0 19 8 26 18 13 15 12 16 -3 3 -10 -7 -25 -11 -33 -7 -8 3 -15 0 -15 -7
0 -8 -4 -6 -10 3 -14 21 -12 33 3 24 8 -5 7 -2 -2 10 -8 9 -20 15 -27 12 -7
-3 -16 -1 -19 5 -4 5 -3 9 2 8 23 -4 33 3 32 24 -1 17 -2 18 -6 4 -5 -19 -30
-17 -26 2 3 12 2 12 -36 16 -13 1 -27 8 -31 15 -5 8 -10 9 -14 2 -7 -11 -36
-5 -34 6 2 19 -3 32 -13 32 -5 0 -7 -5 -3 -12 5 -7 3 -8 -5 -4 -7 5 -10 14 -7
21 3 9 -6 16 -25 20 -16 4 -29 13 -29 21 0 8 -5 14 -11 14 -6 0 -9 -7 -5 -15
4 -12 2 -13 -12 -7 -9 5 -24 7 -32 5 -9 -3 -11 -1 -5 4 16 13 17 35 3 44 -9 6
-9 9 -1 9 6 0 9 9 6 20 -3 11 -9 17 -14 14 -5 -3 -6 -10 -3 -16 4 -7 2 -8 -5
-4 -6 4 -14 0 -17 -8 -3 -9 -10 -16 -16 -16 -5 0 -7 4 -4 9 3 4 -3 16 -14 26
-11 10 -20 28 -19 39 0 21 0 21 9 0 5 -12 14 -25 21 -30 7 -4 10 -3 6 3 -4 6
0 14 9 17 12 5 15 2 10 -11 -6 -14 -4 -15 5 -6 16 16 3 32 -21 26 -14 -4 -20
0 -20 11 0 9 -7 16 -15 16 -8 0 -15 5 -15 11 0 5 -6 7 -12 3 -14 -9 -51 -14
-43 -6 3 3 -6 15 -19 27 -24 23 -24 23 -5 43 24 27 24 31 -1 25 -12 -3 -20 0
-20 6 0 7 5 9 10 6 6 -3 10 1 10 9 0 9 -7 13 -18 11 -10 -2 -24 5 -30 16 -7
10 -9 19 -5 18 31 -5 51 29 30 50 -8 8 44 65 175 198 102 104 229 233 283 288
l97 100 236 5 c264 6 932 3 939 -3z"/>
</g>
</svg>
